<?xml version="1.0" standalone="no"?>
<!DOCTYPE svg PUBLIC "-//W3C//DTD SVG 20010904//EN"
 "http://www.w3.org/TR/2001/REC-SVG-20010904/DTD/svg10.dtd">
<svg version="1.0" xmlns="http://www.w3.org/2000/svg"
 width="400.000000pt" height="400.000000pt" viewBox="0 0 400.000000 400.000000"
 preserveAspectRatio="xMidYMid meet">
<metadata>
Created by potrace 1.14, written by Peter Selinger 2001-2017
</metadata>
<g transform="translate(0.000000,400.000000) scale(0.100000,-0.100000)"
fill="#000000" stroke="none">
<path d="M336 2530 c-38 -34 -52 -78 -41 -128 4 -18 61 -93 146 -191 76 -88
139 -162 139 -165 0 -2 -31 -6 -69 -8 -85 -6 -144 -37 -186 -96 l-30 -44 -3
-229 -3 -229 85 0 86 0 0 198 c0 141 3 201 12 210 8 8 54 12 143 12 l130 0
180 -210 180 -210 107 0 c61 0 108 4 108 9 0 6 -77 99 -171 208 -142 164 -167
199 -152 204 10 4 39 14 65 24 145 51 237 195 226 352 -9 125 -80 228 -196
285 l-67 33 -326 3 -327 3 -36 -31z m649 -151 c60 -17 121 -83 130 -140 11
-72 -30 -150 -97 -185 -18 -9 -58 -14 -115 -13 l-88 0 -140 164 c-77 90 -141
169 -143 175 -5 14 400 13 453 -1z"/>
<path d="M1714 2544 c-57 -20 -117 -75 -145 -131 -24 -48 -24 -49 -24 -403 0
-266 3 -364 13 -392 21 -60 65 -111 123 -143 l54 -30 368 -3 367 -4 0 91 0 91
-350 0 -351 0 -24 25 c-24 23 -25 30 -25 150 l0 125 375 0 375 0 0 90 0 90
-375 0 -375 0 0 118 c0 176 -35 162 398 162 l352 0 0 90 0 90 -357 -1 c-287 0
-366 -3 -399 -15z"/>
<path d="M2650 2557 c0 -18 307 -572 334 -604 21 -24 61 -53 96 -70 l59 -28 0
-212 1 -213 85 0 85 0 0 209 0 210 60 27 c89 40 133 94 234 289 49 94 115 221
148 283 l60 112 -99 0 -98 0 -129 -245 c-119 -226 -132 -248 -171 -270 -64
-38 -141 -31 -193 18 -13 12 -80 128 -150 259 l-127 238 -97 0 c-54 0 -98 -1
-98 -3z"/>
</g>
</svg>
